<?xml version="1.0" encoding="UTF-8" standalone="no"?>
<svg
   xmlns:dc="http://purl.org/dc/elements/1.1/"
   xmlns:cc="http://creativecommons.org/ns#"
   xmlns:rdf="http://www.w3.org/1999/02/22-rdf-syntax-ns#"
   xmlns:svg="http://www.w3.org/2000/svg"
   xmlns="http://www.w3.org/2000/svg"
   xmlns:sodipodi="http://sodipodi.sourceforge.net/DTD/sodipodi-0.dtd"
   xmlns:inkscape="http://www.inkscape.org/namespaces/inkscape"
   viewBox="0 0 512 512"
   style="height: 512px; width: 512px;"
   version="1.1"
   id="svg3759"
   sodipodi:docname="dieGreenWarning.svg"
   inkscape:version="0.92.4 (5da689c313, 2019-01-14)">
  <metadata
     id="metadata3765">
    <rdf:RDF>
      <cc:Work
         rdf:about="">
        <dc:format>image/svg+xml</dc:format>
        <dc:type
           rdf:resource="http://purl.org/dc/dcmitype/StillImage" />
        <dc:title />
      </cc:Work>
    </rdf:RDF>
  </metadata>
  <defs
     id="defs3763" />
  <sodipodi:namedview
     pagecolor="#ffffff"
     bordercolor="#666666"
     borderopacity="1"
     objecttolerance="10"
     gridtolerance="10"
     guidetolerance="10"
     inkscape:pageopacity="0"
     inkscape:pageshadow="2"
     inkscape:window-width="1920"
     inkscape:window-height="1001"
     id="namedview3761"
     showgrid="false"
     inkscape:zoom="1.84375"
     inkscape:cx="306.0339"
     inkscape:cy="243.5019"
     inkscape:window-x="-9"
     inkscape:window-y="1341"
     inkscape:window-maximized="1"
     inkscape:current-layer="svg3759" />
  <path
     d="M0 0h512v512H0z"
     fill="#417505"
     fill-opacity="1"
     id="path3753"
     style="fill:#008000" />
  <g
     class=""
     id="g3757">
    <path
       d="M 74.5,36 A 38.5,38.5 0 0 0 36,74.5 v 363 A 38.5,38.5 0 0 0 74.5,476 h 363 A 38.5,38.5 0 0 0 476,437.5 V 74.5 A 38.5,38.5 0 0 0 437.5,36 Z M 256,206 a 50,50 0 0 1 0,100 50,50 0 0 1 0,-100 z"
       id="path3755"
       inkscape:connector-curvature="0"
       style="fill:#ffffff;fill-opacity:1" />
  </g>
  <path
     style="fill:#ffffff;stroke-width:1.60066557"
     id="path3767"
     sodipodi:type="arc"
     sodipodi:cx="241.8983"
     sodipodi:cy="244.88136"
     sodipodi:rx="78.101692"
     sodipodi:ry="117.42373"
     sodipodi:start="0"
     sodipodi:end="5.1386496"
     d="M 319.99999,244.88136 A 78.101692,117.42373 0 0 1 263.94215,357.5309 78.101692,117.42373 0 0 1 176.24016,308.47101 78.101692,117.42373 0 0 1 182.79103,168.1276 78.101692,117.42373 0 0 1 274.19092,137.96492"
     sodipodi:open="true" />
  <g
     aria-label="WARNING"
     transform="matrix(2.098092,0,0,4.661911,-56.522272,-487.02837)"
     style="font-style:normal;font-weight:normal;font-size:40px;line-height:1.25;font-family:sans-serif;letter-spacing:0px;word-spacing:0px;fill:#008000;fill-opacity:1;stroke:none"
     id="flowRoot3769">
    <path
       d="m 86.025391,143.00493 -7.558594,29.08203 h -4.355469 l -6.113281,-24.14062 -5.976563,24.14062 h -4.257812 l -7.695313,-29.08203 h 3.964844 l 6.113281,24.17969 6.015625,-24.17969 h 3.925782 l 6.074218,24.41406 6.074219,-24.41406 z"
       style=""
       id="path16" />
    <path
       d="m 113.70117,172.08696 h -4.12109 l -2.85156,-8.10547 H 94.150391 l -2.851563,8.10547 h -3.925781 l 10.585937,-29.08203 h 5.156246 z m -8.16406,-11.42578 -5.09766,-14.27734 -5.117184,14.27734 z"
       style=""
       id="path18" />
    <path
       d="m 142.17773,172.08696 h -5.01953 l -9.72656,-11.5625 h -5.44922 v 11.5625 h -3.86719 v -29.08203 h 8.14454 q 2.63671,0 4.39453,0.35156 1.75781,0.33204 3.16406,1.21094 1.58203,0.9961 2.46094,2.51953 0.89843,1.50391 0.89843,3.82813 0,3.14453 -1.58203,5.27344 -1.58203,2.10937 -4.35547,3.18359 z m -9.04296,-20.89843 q 0,-1.25 -0.44922,-2.20704 -0.42969,-0.97656 -1.44532,-1.64062 -0.83984,-0.56641 -1.99218,-0.78125 -1.15235,-0.23438 -2.71485,-0.23438 h -4.55078 v 10.97657 h 3.90625 q 1.83594,0 3.20313,-0.3125 1.36718,-0.33203 2.32422,-1.21094 0.8789,-0.82031 1.28906,-1.875 0.42969,-1.07422 0.42969,-2.71484 z"
       style=""
       id="path20" />
    <path
       d="m 168.11523,172.08696 h -4.78515 l -13.78906,-26.01562 v 26.01562 h -3.61329 v -29.08203 h 5.9961 l 12.57812,23.75 v -23.75 h 3.61328 z"
       style=""
       id="path22" />
    <path
       d="m 186.10352,172.08696 h -11.48438 v -2.96875 h 3.80859 v -23.14453 h -3.80859 v -2.96875 h 11.48438 v 2.96875 h -3.8086 v 23.14453 h 3.8086 z"
       style=""
       id="path24" />
    <path
       d="m 214.91211,172.08696 h -4.78516 l -13.78906,-26.01562 v 26.01562 h -3.61328 v -29.08203 h 5.99609 l 12.57813,23.75 v -23.75 h 3.61328 z"
       style=""
       id="path26" />
    <path
       d="m 246.9043,169.93853 q -2.38282,1.09375 -5.21485,1.91406 -2.8125,0.80078 -5.44922,0.80078 -3.39843,0 -6.23046,-0.9375 -2.83204,-0.9375 -4.82422,-2.8125 -2.01172,-1.89453 -3.10547,-4.72656 -1.09375,-2.85157 -1.09375,-6.66016 0,-6.97266 4.0625,-10.99609 4.08203,-4.04297 11.1914,-4.04297 2.48047,0 5.0586,0.60547 2.59765,0.58593 5.58594,2.01172 v 4.58984 h -0.35157 q -0.60547,-0.46875 -1.75781,-1.23047 -1.15234,-0.76172 -2.26562,-1.26953 -1.34766,-0.60547 -3.06641,-0.99609 -1.69922,-0.41016 -3.86719,-0.41016 -4.88281,0 -7.73437,3.14453 -2.83203,3.125 -2.83203,8.47656 0,5.64453 2.96875,8.78907 2.96875,3.125 8.08593,3.125 1.875,0 3.73047,-0.3711 1.875,-0.37109 3.28125,-0.95703 v -7.12891 h -7.79297 v -3.39843 h 11.6211 z"
       style=""
       id="path28" />
  </g>
  <text
     xml:space="preserve"
     style="font-style:normal;font-weight:normal;font-size:40px;line-height:1.25;font-family:sans-serif;letter-spacing:0px;word-spacing:0px;fill:#000000;fill-opacity:1;stroke:none"
     x="137.22034"
     y="171.38983"
     id="text3779"><tspan
       sodipodi:role="line"
       id="tspan3777"
       x="137.22034"
       y="207.88304" /></text>
</svg>
