<?xml version="1.0" encoding="UTF-8" standalone="no"?>
<svg
   xmlns:dc="http://purl.org/dc/elements/1.1/"
   xmlns:cc="http://creativecommons.org/ns#"
   xmlns:rdf="http://www.w3.org/1999/02/22-rdf-syntax-ns#"
   xmlns:svg="http://www.w3.org/2000/svg"
   xmlns="http://www.w3.org/2000/svg"
   xmlns:sodipodi="http://sodipodi.sourceforge.net/DTD/sodipodi-0.dtd"
   xmlns:inkscape="http://www.inkscape.org/namespaces/inkscape"
   viewBox="0 0 512 512"
   style="height: 512px; width: 512px;"
   version="1.1"
   id="svg3759"
   sodipodi:docname="dieRedSuccess.svg"
   inkscape:version="0.92.4 (5da689c313, 2019-01-14)">
  <metadata
     id="metadata3765">
    <rdf:RDF>
      <cc:Work
         rdf:about="">
        <dc:format>image/svg+xml</dc:format>
        <dc:type
           rdf:resource="http://purl.org/dc/dcmitype/StillImage" />
        <dc:title />
      </cc:Work>
    </rdf:RDF>
  </metadata>
  <defs
     id="defs3763" />
  <sodipodi:namedview
     pagecolor="#ffffff"
     bordercolor="#666666"
     borderopacity="1"
     objecttolerance="10"
     gridtolerance="10"
     guidetolerance="10"
     inkscape:pageopacity="0"
     inkscape:pageshadow="2"
     inkscape:window-width="1920"
     inkscape:window-height="1001"
     id="namedview3761"
     showgrid="false"
     inkscape:zoom="1.84375"
     inkscape:cx="33.686169"
     inkscape:cy="243.5019"
     inkscape:window-x="-9"
     inkscape:window-y="1341"
     inkscape:window-maximized="1"
     inkscape:current-layer="svg3759" />
  <path
     d="M0 0h512v512H0z"
     fill="#417505"
     fill-opacity="1"
     id="path3753"
     style="fill:#aa0000" />
  <g
     class=""
     id="g3757">
    <path
       d="M 74.5,36 A 38.5,38.5 0 0 0 36,74.5 v 363 A 38.5,38.5 0 0 0 74.5,476 h 363 A 38.5,38.5 0 0 0 476,437.5 V 74.5 A 38.5,38.5 0 0 0 437.5,36 Z M 256,206 a 50,50 0 0 1 0,100 50,50 0 0 1 0,-100 z"
       id="path3755"
       inkscape:connector-curvature="0"
       style="fill:#ffffff;fill-opacity:1" />
  </g>
  <path
     style="fill:#ffffff;stroke-width:1.60066557"
     id="path3767"
     sodipodi:type="arc"
     sodipodi:cx="241.8983"
     sodipodi:cy="244.88136"
     sodipodi:rx="78.101692"
     sodipodi:ry="117.42373"
     sodipodi:start="0"
     sodipodi:end="5.1386496"
     d="M 319.99999,244.88136 A 78.101692,117.42373 0 0 1 263.94215,357.5309 78.101692,117.42373 0 0 1 176.24016,308.47101 78.101692,117.42373 0 0 1 182.79103,168.1276 78.101692,117.42373 0 0 1 274.19092,137.96492"
     sodipodi:open="true" />
  <g
     aria-label="SUCCESS"
     transform="matrix(2.2193321,0,0,4.661911,-62.592564,-487.02837)"
     style="font-style:normal;font-weight:normal;font-size:40px;line-height:1.25;font-family:sans-serif;letter-spacing:0px;word-spacing:0px;fill:#aa0000;fill-opacity:1;stroke:none"
     id="flowRoot3769">
    <path
       d="m 73.310547,163.78618 q 0,1.69922 -0.800781,3.35938 -0.78125,1.66015 -2.207032,2.8125 -1.5625,1.25 -3.652343,1.95312 -2.070313,0.70313 -5,0.70313 -3.144532,0 -5.664063,-0.58594 -2.5,-0.58594 -5.097656,-1.73828 v -4.84375 h 0.273437 q 2.207032,1.83594 5.097657,2.83203 2.890625,0.99609 5.429687,0.99609 3.59375,0 5.585938,-1.34765 2.011718,-1.34766 2.011718,-3.59375 0,-1.9336 -0.957031,-2.85157 -0.9375,-0.91796 -2.871094,-1.42578 -1.464843,-0.39062 -3.183593,-0.64453 -1.699219,-0.2539 -3.613282,-0.64453 -3.867187,-0.82031 -5.742187,-2.79297 -1.855469,-1.99219 -1.855469,-5.17578 0,-3.65234 3.085938,-5.97656 3.085937,-2.34375 7.832031,-2.34375 3.066406,0 5.625,0.58594 2.558594,0.58593 4.53125,1.44531 v 4.57031 h -0.273438 q -1.660156,-1.40625 -4.375,-2.32422 -2.695312,-0.9375 -5.527343,-0.9375 -3.105469,0 -5,1.28906 -1.875,1.28907 -1.875,3.32032 0,1.8164 0.9375,2.85156 0.9375,1.03516 3.300781,1.58203 1.25,0.27344 3.554687,0.66406 2.304688,0.39063 3.90625,0.80078 3.242188,0.85938 4.882813,2.59766 1.640625,1.73828 1.640625,4.86328 z"
       style=""
       id="path16" />
    <path
       d="m 101.41602,160.40728 q 0,3.16406 -0.70313,5.52734 -0.68359,2.34375 -2.265624,3.90625 -1.503907,1.48437 -3.515625,2.16797 -2.011719,0.68359 -4.6875,0.68359 -2.734375,0 -4.765625,-0.72265 -2.03125,-0.72266 -3.417969,-2.12891 -1.582031,-1.60156 -2.285156,-3.86719 -0.683594,-2.26562 -0.683594,-5.5664 v -17.40235 h 3.867187 v 17.59766 q 0,2.36328 0.3125,3.73047 0.332032,1.36718 1.09375,2.48047 0.859375,1.26953 2.324219,1.91406 1.484375,0.64453 3.554688,0.64453 2.089843,0 3.554687,-0.625 1.464844,-0.64453 2.34375,-1.93359 0.761719,-1.11329 1.074219,-2.53907 0.332031,-1.44531 0.332031,-3.57422 v -17.69531 h 3.867192 z"
       style=""
       id="path18" />
    <path
       d="m 131.2793,169.97759 q -1.07422,0.46875 -1.95313,0.8789 -0.85937,0.41016 -2.26562,0.85938 -1.19141,0.37109 -2.59766,0.625 -1.38672,0.27344 -3.06641,0.27344 -3.16406,0 -5.76171,-0.87891 -2.57813,-0.89844 -4.49219,-2.79297 -1.875,-1.85547 -2.92969,-4.70703 -1.05469,-2.87109 -1.05469,-6.66016 0,-3.59375 1.01563,-6.42578 1.01562,-2.83203 2.92969,-4.78515 1.85546,-1.89453 4.47265,-2.89063 2.63672,-0.99609 5.83985,-0.99609 2.34375,0 4.66796,0.5664 2.34375,0.56641 5.19532,1.99219 v 4.58985 h -0.29297 q -2.40235,-2.01172 -4.76563,-2.92969 -2.36328,-0.91797 -5.05859,-0.91797 -2.20703,0 -3.98438,0.72266 -1.75781,0.70312 -3.14453,2.20703 -1.34765,1.46484 -2.10937,3.71093 -0.74219,2.22657 -0.74219,5.15625 0,3.06641 0.82031,5.27344 0.83985,2.20703 2.14844,3.59375 1.36719,1.44531 3.18359,2.14844 1.83594,0.68359 3.86719,0.68359 2.79297,0 5.23438,-0.95703 2.4414,-0.95703 4.57031,-2.87109 h 0.27344 z"
       style=""
       id="path20" />
    <path
       d="m 159.24805,169.97759 q -1.07422,0.46875 -1.95313,0.8789 -0.85937,0.41016 -2.26562,0.85938 -1.19141,0.37109 -2.59766,0.625 -1.38672,0.27344 -3.06641,0.27344 -3.16406,0 -5.76171,-0.87891 -2.57813,-0.89844 -4.49219,-2.79297 -1.875,-1.85547 -2.92969,-4.70703 -1.05469,-2.87109 -1.05469,-6.66016 0,-3.59375 1.01563,-6.42578 1.01562,-2.83203 2.92969,-4.78515 1.85546,-1.89453 4.47265,-2.89063 2.63672,-0.99609 5.83985,-0.99609 2.34375,0 4.66796,0.5664 2.34375,0.56641 5.19532,1.99219 v 4.58985 h -0.29297 q -2.40235,-2.01172 -4.76563,-2.92969 -2.36328,-0.91797 -5.05859,-0.91797 -2.20703,0 -3.98438,0.72266 -1.75781,0.70312 -3.14453,2.20703 -1.34765,1.46484 -2.10937,3.71093 -0.74219,2.22657 -0.74219,5.15625 0,3.06641 0.82031,5.27344 0.83985,2.20703 2.14844,3.59375 1.36719,1.44531 3.18359,2.14844 1.83594,0.68359 3.86719,0.68359 2.79297,0 5.23438,-0.95703 2.4414,-0.95703 4.57031,-2.87109 h 0.27344 z"
       style=""
       id="path22" />
    <path
       d="m 183.91602,172.08696 h -19.16016 v -29.08203 h 19.16016 v 3.4375 h -15.29297 v 7.96875 h 15.29297 v 3.4375 h -15.29297 v 10.80078 h 15.29297 z"
       style=""
       id="path24" />
    <path
       d="m 211.20117,163.78618 q 0,1.69922 -0.80078,3.35938 -0.78125,1.66015 -2.20703,2.8125 -1.5625,1.25 -3.65234,1.95312 -2.07032,0.70313 -5,0.70313 -3.14454,0 -5.66407,-0.58594 -2.5,-0.58594 -5.09765,-1.73828 v -4.84375 h 0.27343 q 2.20704,1.83594 5.09766,2.83203 2.89063,0.99609 5.42969,0.99609 3.59375,0 5.58594,-1.34765 2.01171,-1.34766 2.01171,-3.59375 0,-1.9336 -0.95703,-2.85157 -0.9375,-0.91796 -2.87109,-1.42578 -1.46484,-0.39062 -3.18359,-0.64453 -1.69922,-0.2539 -3.61329,-0.64453 -3.86718,-0.82031 -5.74218,-2.79297 -1.85547,-1.99219 -1.85547,-5.17578 0,-3.65234 3.08594,-5.97656 3.08593,-2.34375 7.83203,-2.34375 3.0664,0 5.625,0.58594 2.55859,0.58593 4.53125,1.44531 v 4.57031 h -0.27344 q -1.66016,-1.40625 -4.375,-2.32422 -2.69531,-0.9375 -5.52734,-0.9375 -3.10547,0 -5,1.28906 -1.875,1.28907 -1.875,3.32032 0,1.8164 0.9375,2.85156 0.9375,1.03516 3.30078,1.58203 1.25,0.27344 3.55468,0.66406 2.30469,0.39063 3.90625,0.80078 3.24219,0.85938 4.88282,2.59766 1.64062,1.73828 1.64062,4.86328 z"
       style=""
       id="path26" />
    <path
       d="m 238.1543,163.78618 q 0,1.69922 -0.80078,3.35938 -0.78125,1.66015 -2.20704,2.8125 -1.5625,1.25 -3.65234,1.95312 -2.07031,0.70313 -5,0.70313 -3.14453,0 -5.66406,-0.58594 -2.5,-0.58594 -5.09766,-1.73828 v -4.84375 h 0.27344 q 2.20703,1.83594 5.09766,2.83203 2.89062,0.99609 5.42968,0.99609 3.59375,0 5.58594,-1.34765 2.01172,-1.34766 2.01172,-3.59375 0,-1.9336 -0.95703,-2.85157 -0.9375,-0.91796 -2.8711,-1.42578 -1.46484,-0.39062 -3.18359,-0.64453 -1.69922,-0.2539 -3.61328,-0.64453 -3.86719,-0.82031 -5.74219,-2.79297 -1.85547,-1.99219 -1.85547,-5.17578 0,-3.65234 3.08594,-5.97656 3.08594,-2.34375 7.83203,-2.34375 3.06641,0 5.625,0.58594 2.5586,0.58593 4.53125,1.44531 v 4.57031 h -0.27344 q -1.66015,-1.40625 -4.375,-2.32422 -2.69531,-0.9375 -5.52734,-0.9375 -3.10547,0 -5,1.28906 -1.875,1.28907 -1.875,3.32032 0,1.8164 0.9375,2.85156 0.9375,1.03516 3.30078,1.58203 1.25,0.27344 3.55469,0.66406 2.30469,0.39063 3.90625,0.80078 3.24219,0.85938 4.88281,2.59766 1.64063,1.73828 1.64063,4.86328 z"
       style=""
       id="path28" />
  </g>
  <text
     xml:space="preserve"
     style="font-style:normal;font-weight:normal;font-size:40px;line-height:1.25;font-family:sans-serif;letter-spacing:0px;word-spacing:0px;fill:#000000;fill-opacity:1;stroke:none"
     x="137.22034"
     y="171.38983"
     id="text3779"><tspan
       sodipodi:role="line"
       id="tspan3777"
       x="137.22034"
       y="207.88304" /></text>
</svg>
