<?xml version="1.0" encoding="UTF-8" standalone="no"?>
<svg
   xmlns:dc="http://purl.org/dc/elements/1.1/"
   xmlns:cc="http://creativecommons.org/ns#"
   xmlns:rdf="http://www.w3.org/1999/02/22-rdf-syntax-ns#"
   xmlns:svg="http://www.w3.org/2000/svg"
   xmlns="http://www.w3.org/2000/svg"
   xmlns:sodipodi="http://sodipodi.sourceforge.net/DTD/sodipodi-0.dtd"
   xmlns:inkscape="http://www.inkscape.org/namespaces/inkscape"
   viewBox="0 0 512 512"
   style="height: 512px; width: 512px;"
   version="1.1"
   id="svg3759"
   sodipodi:docname="dieRedWarning.svg"
   inkscape:version="0.92.4 (5da689c313, 2019-01-14)">
  <metadata
     id="metadata3765">
    <rdf:RDF>
      <cc:Work
         rdf:about="">
        <dc:format>image/svg+xml</dc:format>
        <dc:type
           rdf:resource="http://purl.org/dc/dcmitype/StillImage" />
        <dc:title></dc:title>
      </cc:Work>
    </rdf:RDF>
  </metadata>
  <defs
     id="defs3763" />
  <sodipodi:namedview
     pagecolor="#ffffff"
     bordercolor="#666666"
     borderopacity="1"
     objecttolerance="10"
     gridtolerance="10"
     guidetolerance="10"
     inkscape:pageopacity="0"
     inkscape:pageshadow="2"
     inkscape:window-width="1920"
     inkscape:window-height="1001"
     id="namedview3761"
     showgrid="false"
     inkscape:zoom="1.84375"
     inkscape:cx="401.49153"
     inkscape:cy="243.5019"
     inkscape:window-x="-9"
     inkscape:window-y="1341"
     inkscape:window-maximized="1"
     inkscape:current-layer="svg3759" />
  <path
     d="M0 0h512v512H0z"
     fill="#417505"
     fill-opacity="1"
     id="path3753"
     style="fill:#aa0000" />
  <g
     class=""
     id="g3757">
    <path
       d="M 74.5,36 A 38.5,38.5 0 0 0 36,74.5 v 363 A 38.5,38.5 0 0 0 74.5,476 h 363 A 38.5,38.5 0 0 0 476,437.5 V 74.5 A 38.5,38.5 0 0 0 437.5,36 Z M 256,206 a 50,50 0 0 1 0,100 50,50 0 0 1 0,-100 z"
       id="path3755"
       inkscape:connector-curvature="0"
       style="fill:#ffffff;fill-opacity:1" />
  </g>
  <path
     style="fill:#ffffff;stroke-width:1.60066557"
     id="path3767"
     sodipodi:type="arc"
     sodipodi:cx="241.8983"
     sodipodi:cy="244.88136"
     sodipodi:rx="78.101692"
     sodipodi:ry="117.42373"
     sodipodi:start="0"
     sodipodi:end="5.1386496"
     d="M 319.99999,244.88136 A 78.101692,117.42373 0 0 1 263.94215,357.5309 78.101692,117.42373 0 0 1 176.24016,308.47101 78.101692,117.42373 0 0 1 182.79103,168.1276 78.101692,117.42373 0 0 1 274.19092,137.96492"
     sodipodi:open="true" />
  <flowRoot
     xml:space="preserve"
     id="flowRoot3769"
     style="font-style:normal;font-weight:normal;font-size:40px;line-height:1.25;font-family:sans-serif;letter-spacing:0px;word-spacing:0px;fill:#aa0000;fill-opacity:1;stroke:none;"
     transform="matrix(2.098092,0,0,4.661911,-56.522272,-487.02837)"><flowRegion
       id="flowRegion3771"
       style="fill:#aa0000;fill-opacity:1;"><rect
         id="rect3773"
         width="417.62711"
         height="157.83051"
         x="48.271187"
         y="135.59322"
         style="fill:#aa0000;fill-opacity:1;" /></flowRegion><flowPara
       id="flowPara3775">WARNING</flowPara></flowRoot>  <text
     xml:space="preserve"
     style="font-style:normal;font-weight:normal;font-size:40px;line-height:1.25;font-family:sans-serif;letter-spacing:0px;word-spacing:0px;fill:#000000;fill-opacity:1;stroke:none"
     x="137.22034"
     y="171.38983"
     id="text3779"><tspan
       sodipodi:role="line"
       id="tspan3777"
       x="137.22034"
       y="207.88304" /></text>
</svg>
