<?xml version="1.0" encoding="UTF-8" standalone="no"?>
<svg
   xmlns:dc="http://purl.org/dc/elements/1.1/"
   xmlns:cc="http://creativecommons.org/ns#"
   xmlns:rdf="http://www.w3.org/1999/02/22-rdf-syntax-ns#"
   xmlns:svg="http://www.w3.org/2000/svg"
   xmlns="http://www.w3.org/2000/svg"
   xmlns:sodipodi="http://sodipodi.sourceforge.net/DTD/sodipodi-0.dtd"
   xmlns:inkscape="http://www.inkscape.org/namespaces/inkscape"
   viewBox="0 0 512 512"
   style="height: 512px; width: 512px;"
   version="1.1"
   id="svg3759"
   sodipodi:docname="dieRedError.svg"
   inkscape:version="0.92.4 (5da689c313, 2019-01-14)">
  <metadata
     id="metadata3765">
    <rdf:RDF>
      <cc:Work
         rdf:about="">
        <dc:format>image/svg+xml</dc:format>
        <dc:type
           rdf:resource="http://purl.org/dc/dcmitype/StillImage" />
        <dc:title />
      </cc:Work>
    </rdf:RDF>
  </metadata>
  <defs
     id="defs3763" />
  <sodipodi:namedview
     pagecolor="#ffffff"
     bordercolor="#666666"
     borderopacity="1"
     objecttolerance="10"
     gridtolerance="10"
     guidetolerance="10"
     inkscape:pageopacity="0"
     inkscape:pageshadow="2"
     inkscape:window-width="1920"
     inkscape:window-height="1001"
     id="namedview3761"
     showgrid="false"
     inkscape:zoom="1.84375"
     inkscape:cx="310.1017"
     inkscape:cy="243.5019"
     inkscape:window-x="-9"
     inkscape:window-y="1341"
     inkscape:window-maximized="1"
     inkscape:current-layer="svg3759" />
  <path
     d="M0 0h512v512H0z"
     fill="#417505"
     fill-opacity="1"
     id="path3753"
     style="fill:#aa0000" />
  <g
     class=""
     id="g3757">
    <path
       d="M 74.5,36 A 38.5,38.5 0 0 0 36,74.5 v 363 A 38.5,38.5 0 0 0 74.5,476 h 363 A 38.5,38.5 0 0 0 476,437.5 V 74.5 A 38.5,38.5 0 0 0 437.5,36 Z M 256,206 a 50,50 0 0 1 0,100 50,50 0 0 1 0,-100 z"
       id="path3755"
       inkscape:connector-curvature="0"
       style="fill:#ffffff;fill-opacity:1" />
  </g>
  <path
     style="fill:#ffffff;stroke-width:1.60066557"
     id="path3767"
     sodipodi:type="arc"
     sodipodi:cx="241.8983"
     sodipodi:cy="244.88136"
     sodipodi:rx="78.101692"
     sodipodi:ry="117.42373"
     sodipodi:start="0"
     sodipodi:end="5.1386496"
     d="M 319.99999,244.88136 A 78.101692,117.42373 0 0 1 263.94215,357.5309 78.101692,117.42373 0 0 1 176.24016,308.47101 78.101692,117.42373 0 0 1 182.79103,168.1276 78.101692,117.42373 0 0 1 274.19092,137.96492"
     sodipodi:open="true" />
  <g
     aria-label="ERROR"
     transform="matrix(3.0240066,0,0,4.661911,-103.74965,-484.3165)"
     style="font-style:normal;font-weight:normal;font-size:40px;line-height:1.25;font-family:sans-serif;letter-spacing:0px;word-spacing:0px;fill:#aa0000;fill-opacity:1;stroke:none"
     id="flowRoot3769">
    <path
       d="M 71.337891,172.08696 H 52.177734 v -29.08203 h 19.160157 v 3.4375 H 56.044922 v 7.96875 h 15.292969 v 3.4375 H 56.044922 v 10.80078 h 15.292969 z"
       style=""
       id="path16" />
    <path
       d="m 101.55273,172.08696 h -5.019527 l -9.726562,-11.5625 h -5.449219 v 11.5625 h -3.867188 v -29.08203 h 8.144532 q 2.636718,0 4.394531,0.35156 1.757812,0.33204 3.164062,1.21094 1.582032,0.9961 2.460938,2.51953 0.898437,1.50391 0.898437,3.82813 0,3.14453 -1.582031,5.27344 -1.582031,2.10937 -4.355469,3.18359 z m -9.042964,-20.89843 q 0,-1.25 -0.449219,-2.20704 -0.429688,-0.97656 -1.445313,-1.64062 -0.839843,-0.56641 -1.992187,-0.78125 -1.152344,-0.23438 -2.714844,-0.23438 h -4.550781 v 10.97657 h 3.90625 q 1.835937,0 3.203125,-0.3125 1.367187,-0.33203 2.324219,-1.21094 0.878906,-0.82031 1.289062,-1.875 0.429688,-1.07422 0.429688,-2.71484 z"
       style=""
       id="path18" />
    <path
       d="m 129.36523,172.08696 h -5.01953 l -9.72656,-11.5625 h -5.44922 v 11.5625 h -3.86719 v -29.08203 h 8.14454 q 2.63671,0 4.39453,0.35156 1.75781,0.33204 3.16406,1.21094 1.58203,0.9961 2.46094,2.51953 0.89843,1.50391 0.89843,3.82813 0,3.14453 -1.58203,5.27344 -1.58203,2.10937 -4.35547,3.18359 z m -9.04296,-20.89843 q 0,-1.25 -0.44922,-2.20704 -0.42969,-0.97656 -1.44532,-1.64062 -0.83984,-0.56641 -1.99218,-0.78125 -1.15235,-0.23438 -2.71485,-0.23438 h -4.55078 v 10.97657 h 3.90625 q 1.83594,0 3.20313,-0.3125 1.36718,-0.33203 2.32422,-1.21094 0.8789,-0.82031 1.28906,-1.875 0.42969,-1.07422 0.42969,-2.71484 z"
       style=""
       id="path20" />
    <path
       d="m 154.79492,146.34478 q 1.77735,1.95312 2.71485,4.78515 0.95703,2.83203 0.95703,6.42578 0,3.59375 -0.97657,6.44532 -0.95703,2.83203 -2.69531,4.72656 -1.79687,1.97265 -4.25781,2.96875 -2.44141,0.99609 -5.58594,0.99609 -3.0664,0 -5.58594,-1.01562 -2.5,-1.01563 -4.25781,-2.94922 -1.75781,-1.9336 -2.71484,-4.7461 -0.9375,-2.8125 -0.9375,-6.42578 0,-3.55468 0.9375,-6.36718 0.9375,-2.83204 2.73437,-4.84375 1.71875,-1.91407 4.25782,-2.92969 2.55859,-1.01563 5.5664,-1.01563 3.125,0 5.60547,1.03516 2.5,1.01562 4.23828,2.91016 z m -0.35156,11.21093 q 0,-5.66406 -2.53906,-8.73047 -2.53907,-3.08593 -6.9336,-3.08593 -4.43359,0 -6.97265,3.08593 -2.51953,3.06641 -2.51953,8.73047 0,5.72266 2.57812,8.76953 2.57813,3.02735 6.91406,3.02735 4.33594,0 6.89453,-3.02735 2.57813,-3.04687 2.57813,-8.76953 z"
       style=""
       id="path22" />
    <path
       d="m 188.66211,172.08696 h -5.01953 l -9.72656,-11.5625 h -5.44922 v 11.5625 h -3.86719 v -29.08203 h 8.14453 q 2.63672,0 4.39453,0.35156 1.75781,0.33204 3.16406,1.21094 1.58204,0.9961 2.46094,2.51953 0.89844,1.50391 0.89844,3.82813 0,3.14453 -1.58203,5.27344 -1.58203,2.10937 -4.35547,3.18359 z m -9.04297,-20.89843 q 0,-1.25 -0.44922,-2.20704 -0.42969,-0.97656 -1.44531,-1.64062 -0.83984,-0.56641 -1.99219,-0.78125 -1.15234,-0.23438 -2.71484,-0.23438 h -4.55078 v 10.97657 h 3.90625 q 1.83593,0 3.20312,-0.3125 1.36719,-0.33203 2.32422,-1.21094 0.87891,-0.82031 1.28906,-1.875 0.42969,-1.07422 0.42969,-2.71484 z"
       style=""
       id="path24" />
  </g>
  <text
     xml:space="preserve"
     style="font-style:normal;font-weight:normal;font-size:40px;line-height:1.25;font-family:sans-serif;letter-spacing:0px;word-spacing:0px;fill:#000000;fill-opacity:1;stroke:none"
     x="137.22034"
     y="171.38983"
     id="text3779"><tspan
       sodipodi:role="line"
       id="tspan3777"
       x="137.22034"
       y="207.88304" /></text>
</svg>
